<svg width="56" height="56" viewBox="0 0 56 56" fill="none" xmlns="http://www.w3.org/2000/svg">
<g clip-path="url(#clip0_52_51)">
<path d="M42.875 0H13.125C5.87626 0 0 5.87626 0 13.125V42.875C0 50.1237 5.87626 56 13.125 56H42.875C50.1237 56 56 50.1237 56 42.875V13.125C56 5.87626 50.1237 0 42.875 0Z" fill="#232020"/>
<path d="M27.0666 33.3228H18.3866L16.6132 38.8062C16.5666 39.0162 16.38 39.1562 16.17 39.1328H11.7832C11.5266 39.1328 11.4566 38.9928 11.5266 38.7128L19.04 17.0828C19.11 16.8496 19.18 16.5928 19.2732 16.3128C19.3666 15.8228 19.4132 15.3096 19.4132 14.7962C19.39 14.6796 19.4832 14.5628 19.6 14.5396H25.6432C25.83 14.5396 25.9232 14.6096 25.9466 14.7262L34.4632 38.7596C34.5332 39.0162 34.4632 39.1328 34.23 39.1328H29.3532C29.19 39.1562 29.0266 39.0396 28.98 38.8762L27.0666 33.3228ZM19.74 28.5862H25.6666C25.5266 28.0962 25.34 27.5128 25.13 26.9062C24.92 26.2762 24.71 25.5996 24.5 24.8996C24.2666 24.1762 24.0566 23.4762 23.8232 22.7528C23.59 22.0296 23.38 21.3528 23.1932 20.6762C23.0066 20.023 22.8432 19.4162 22.68 18.8562H22.6332C22.4232 19.8596 22.1666 20.863 21.84 21.8662C21.49 22.9862 21.14 24.1528 20.7666 25.3196C20.4653 26.4209 20.1228 27.5105 19.74 28.5862ZM39.6666 18.6228C38.8966 18.6462 38.15 18.3428 37.59 17.8062C37.0534 17.2228 36.7734 16.4528 36.7966 15.6596C36.7734 14.8662 37.0766 14.1196 37.6366 13.5828C38.1966 13.0462 38.9434 12.7662 39.7134 12.7662C40.6234 12.7662 41.3234 13.0462 41.8366 13.5828C42.3537 14.1485 42.6299 14.8936 42.6066 15.6596C42.63 16.4528 42.35 17.2228 41.79 17.8062C41.2534 18.3662 40.46 18.6696 39.6666 18.6228ZM37.0534 38.8762V20.9096C37.0534 20.6762 37.1466 20.5828 37.3566 20.5828H41.9766C42.1866 20.5828 42.28 20.6996 42.28 20.9096V38.8762C42.28 39.1328 42.1866 39.2496 41.9766 39.2496H37.4034C37.17 39.2496 37.0534 39.1096 37.0534 38.8762Z" fill="#F8F9FA"/>
</g>
<defs>
<clipPath id="clip0_52_51">
<rect width="56" height="56" fill="white"/>
</clipPath>
</defs>
</svg>
