<svg width="56" height="56" viewBox="0 0 56 56" fill="none" xmlns="http://www.w3.org/2000/svg">
<g clip-path="url(#clip0_52_55)">
<path d="M42.875 0H13.125C5.87626 0 0 5.87626 0 13.125V42.875C0 50.1237 5.87626 56 13.125 56H42.875C50.1237 56 56 50.1237 56 42.875V13.125C56 5.87626 50.1237 0 42.875 0Z" fill="#232020"/>
<path d="M23.0142 34.2344H14.3299L12.558 39.7469C12.5142 39.9656 12.3174 40.0969 12.1205 40.075H7.72362C7.46112 40.075 7.3955 39.9437 7.46112 39.6594L14.9861 18.0469C15.0517 17.8062 15.1174 17.5656 15.2267 17.2812C15.3361 16.8 15.4236 16.2969 15.4236 15.7937C15.4017 15.6844 15.4892 15.5531 15.6205 15.5312H21.6799C21.833 15.5312 21.9642 15.5969 21.9861 15.7281L30.4736 39.7031C30.5392 39.9656 30.4736 40.075 30.233 40.075H25.3549C25.2017 40.0969 25.0267 39.9875 24.983 39.8125L23.0142 34.2344ZM15.6861 29.575H21.6142C21.483 29.0937 21.2861 28.5031 21.0674 27.8906C20.8486 27.2562 20.6517 26.5781 20.433 25.8781C20.1924 25.1562 19.9955 24.4562 19.7549 23.7344C19.5142 23.0125 19.3174 22.3344 19.1205 21.6562C18.9236 21 18.7705 20.3875 18.5955 19.8406H18.5517C18.333 20.8469 18.0924 21.8531 17.7642 22.8594C17.4142 23.975 17.0642 25.1562 16.6924 26.3156C16.408 27.4969 16.0361 28.5906 15.6861 29.575ZM48.3892 21.6562V35.9844C48.3892 36.6187 48.3892 37.1656 48.4111 37.6687C48.433 38.15 48.4549 38.5875 48.4767 38.9594C48.5205 39.3312 48.5424 39.55 48.5642 39.7906C48.5861 40.0094 48.4986 40.0969 48.3017 40.0969H44.2986C44.1017 40.1187 43.9267 40.0094 43.8611 39.8344L43.7299 39.2437C43.6861 39.0906 43.6861 38.9156 43.6861 38.7625C42.9424 39.4406 42.0236 39.9219 41.0392 40.2062C40.208 40.4469 39.3111 40.5562 38.4361 40.5562C37.5611 40.5562 36.708 40.4469 35.8986 40.1625C35.1549 39.9 34.4549 39.4625 33.908 38.8719C33.2955 38.2156 32.858 37.45 32.5955 36.5969C32.2674 35.525 32.1143 34.4094 32.1361 33.2719V21.6781C32.1143 21.5469 32.2017 21.3937 32.3767 21.3719H36.9049C37.0361 21.35 37.1892 21.4375 37.2111 21.6125V32.6594C37.2111 33.6875 37.4517 34.4969 37.8892 35.0875C38.3267 35.6781 39.2455 35.9844 40.2955 35.9844C40.8424 35.9844 41.3674 35.8969 41.8924 35.7C42.4392 35.5031 42.9205 35.2625 43.358 34.9344V21.6562C43.358 21.5031 43.4674 21.3938 43.6861 21.3938H48.1486C48.258 21.3719 48.4111 21.4594 48.4111 21.5906C48.3892 21.6125 48.3892 21.6344 48.3892 21.6562Z" fill="#F8F9FA"/>
</g>
<defs>
<clipPath id="clip0_52_55">
<rect width="56" height="56" fill="white"/>
</clipPath>
</defs>
</svg>
