<svg width="56" height="56" viewBox="0 0 56 56" fill="none" xmlns="http://www.w3.org/2000/svg">
<path d="M28.0004 4H20.0008C17.8789 4 15.8438 4.84294 14.3434 6.34338C12.8429 7.84382 12 9.87886 12 12.0008C12 14.1227 12.8429 16.1578 14.3434 17.6582C15.8438 19.1587 17.8789 20.0016 20.0008 20.0016H28.0004V4Z" stroke="#232020" stroke-width="3"/>
<path d="M28.0004 19.9992H20.0008C17.8789 19.9992 15.8438 20.8421 14.3434 22.3426C12.8429 23.843 12 25.8781 12 28C12 30.1219 12.8429 32.157 14.3434 33.6574C15.8438 35.1579 17.8789 36.0008 20.0008 36.0008H28.0004V19.9992Z" stroke="#232020" stroke-width="3"/>
<path d="M44.002 28.0012C44.002 30.1232 43.1591 32.1582 41.6586 33.6586C40.1582 35.1591 38.1231 36.002 36.0012 36.002C33.8793 36.002 31.8442 35.1591 30.3438 33.6586C28.8433 32.1582 28.0004 30.1232 28.0004 28.0012C28.0004 25.8793 28.8433 23.8442 30.3438 22.3438C31.8442 20.8434 33.8793 20.0004 36.0012 20.0004C38.1231 20.0004 40.1582 20.8434 41.6586 22.3438C43.1591 23.8442 44.002 25.8793 44.002 28.0012ZM20.0008 36.0032H28.0004V44.0028C27.9999 45.5849 27.5304 47.1313 26.6511 48.4465C25.7718 49.7617 24.5222 50.7867 23.0605 51.3918C21.5987 51.9969 19.9903 52.155 18.4387 51.846C16.8871 51.5371 15.4619 50.775 14.3434 49.6562C13.2249 48.5373 12.4632 47.1119 12.1547 45.5602C11.8463 44.0085 12.0048 42.4002 12.6104 40.9386C13.2159 39.477 14.2412 38.2277 15.5567 37.3488C16.8722 36.4699 18.4187 36.0032 20.0008 36.0032Z" stroke="#232020" stroke-width="3"/>
<path d="M28.0004 4H36C38.1219 4 40.157 4.84294 41.6574 6.34338C43.1579 7.84382 44.0008 9.87886 44.0008 12.0008C44.0008 14.1227 43.1579 16.1578 41.6574 17.6582C40.157 19.1587 38.1219 20.0016 36 20.0016H28.0004V4Z" stroke="#232020" stroke-width="3"/>
</svg>
