<svg width="56" height="56" viewBox="0 0 56 56" fill="none" xmlns="http://www.w3.org/2000/svg">
<g clip-path="url(#clip0_52_25)">
<path d="M54.5724 25.5403L30.4592 1.42794C29.0714 0.0393184 26.8192 0.0393184 25.4293 1.42794L20.4225 6.43557L26.7741 12.7872C28.2507 12.2889 29.9429 12.6231 31.1194 13.7996C32.3019 14.9834 32.6336 16.6901 32.123 18.1715L38.2445 24.2934C39.7254 23.7829 41.4348 24.1128 42.6169 25.2975C44.2706 26.9499 44.2706 29.6288 42.6169 31.2821C42.2239 31.6753 41.7573 31.9872 41.2437 32.2C40.7301 32.4128 40.1796 32.5223 39.6237 32.5223C39.0678 32.5223 38.5173 32.4128 38.0038 32.2C37.4902 31.9872 37.0236 31.6753 36.6306 31.2821C36.0401 30.6912 35.6376 29.939 35.4738 29.1199C35.3099 28.3009 35.3919 27.4516 35.7096 26.6791L30.0011 20.9706L30.0003 35.9948C30.4144 36.1988 30.7926 36.4689 31.1198 36.7946C32.7727 38.447 32.7727 41.1249 31.1198 42.7809C29.4665 44.4333 26.7868 44.4333 25.1353 42.7809C23.4824 41.1254 23.4824 38.4474 25.1353 36.7946C25.5313 36.3979 26.0023 36.0841 26.5208 35.8714V20.7081C26.0018 20.496 25.5307 20.182 25.1353 19.7846C23.8831 18.5333 23.5817 16.6958 24.2239 15.1576L17.962 8.89563L1.42801 25.4288C0.760957 26.096 0.38623 27.0009 0.38623 27.9444C0.38623 28.8879 0.760957 29.7927 1.42801 30.46L25.5417 54.5724C26.9303 55.961 29.1817 55.961 30.5725 54.5724L54.5729 30.572C55.2398 29.9046 55.6144 28.9996 55.6143 28.0561C55.6142 27.1125 55.2395 26.2076 54.5724 25.5403Z" fill="#232020"/>
</g>
<defs>
<clipPath id="clip0_52_25">
<rect width="56" height="56" fill="white"/>
</clipPath>
</defs>
</svg>
