<svg width="56" height="56" viewBox="0 0 56 56" fill="none" xmlns="http://www.w3.org/2000/svg">
<g clip-path="url(#clip0_52_27)">
<path d="M28 0C24.323 0 20.682 0.724242 17.2849 2.13137C13.8878 3.5385 10.8011 5.60097 8.20103 8.20101C2.95001 13.452 1.52588e-05 20.5739 1.52588e-05 28C1.52588e-05 40.376 8.03602 50.876 19.152 54.6C20.552 54.824 21 53.956 21 53.2V48.468C13.244 50.148 11.592 44.716 11.592 44.716C10.304 41.468 8.48402 40.6 8.48402 40.6C5.93602 38.864 8.68001 38.92 8.68001 38.92C11.48 39.116 12.964 41.804 12.964 41.804C15.4 46.06 19.516 44.8 21.112 44.128C21.364 42.308 22.092 41.076 22.876 40.376C16.66 39.676 10.136 37.268 10.136 26.6C10.136 23.492 11.2 21 13.02 19.012C12.74 18.312 11.76 15.4 13.3 11.62C13.3 11.62 15.652 10.864 21 14.476C23.212 13.86 25.62 13.552 28 13.552C30.38 13.552 32.788 13.86 35 14.476C40.348 10.864 42.7 11.62 42.7 11.62C44.24 15.4 43.26 18.312 42.98 19.012C44.8 21 45.864 23.492 45.864 26.6C45.864 37.296 39.312 39.648 33.068 40.348C34.076 41.216 35 42.924 35 45.528V53.2C35 53.956 35.448 54.852 36.876 54.6C47.992 50.848 56 40.376 56 28C56 24.323 55.2758 20.682 53.8686 17.2849C52.4615 13.8877 50.399 10.8011 47.799 8.20101C45.199 5.60097 42.1123 3.5385 38.7152 2.13137C35.318 0.724242 31.677 0 28 0Z" fill="#232020"/>
</g>
<defs>
<clipPath id="clip0_52_27">
<rect width="56" height="56" fill="white"/>
</clipPath>
</defs>
</svg>
