<svg width="56" height="56" viewBox="0 0 56 56" fill="none" xmlns="http://www.w3.org/2000/svg">
<g clip-path="url(#clip0_52_21)">
<rect width="56" height="56" rx="10" fill="#232020"/>
<path d="M14.7245 46.7976L19.0098 44.2041C19.8367 45.6699 20.5887 46.9103 22.3928 46.9103C24.122 46.9103 25.2122 46.2339 25.2122 43.6028V25.7094H30.4749V43.6771C30.4749 49.1277 27.2799 51.6088 22.6183 51.6088C18.4085 51.6088 15.9648 49.4285 14.7243 46.7972M33.3333 46.2337L37.6182 43.7528C38.7463 45.5949 40.2124 46.9481 42.8059 46.9481C44.9866 46.9481 46.377 45.8579 46.377 44.3542C46.377 42.5499 44.9485 41.9107 42.5427 40.8585L41.2274 40.2944C37.4305 38.6783 34.9118 36.6483 34.9118 32.3629C34.9118 28.4158 37.9192 25.4084 42.6182 25.4084C45.9637 25.4084 48.3696 26.5739 50.0986 29.6187L46.0012 32.2501C45.0988 30.6337 44.1219 29.9948 42.6182 29.9948C41.0769 29.9948 40.0995 30.9721 40.0995 32.2501C40.0995 33.8288 41.0769 34.468 43.3322 35.4456L44.6477 36.0093C49.121 37.9266 51.6397 39.8809 51.6397 44.2789C51.6397 49.0157 47.9183 51.6092 42.9187 51.6092C38.0321 51.6092 34.8744 49.2787 33.3333 46.2337Z" fill="#F8F9FA"/>
</g>
<defs>
<clipPath id="clip0_52_21">
<rect width="56" height="56" fill="white"/>
</clipPath>
</defs>
</svg>
