<svg width="56" height="55" viewBox="0 0 56 55" fill="none" xmlns="http://www.w3.org/2000/svg">
<g clip-path="url(#clip0_52_63)">
<path d="M46.7031 0H9.29688C4.16235 0 0 4.16235 0 9.29688V45.3031C0 50.4376 4.16235 54.6 9.29688 54.6H46.7031C51.8376 54.6 56 50.4376 56 45.3031V9.29688C56 4.16235 51.8376 0 46.7031 0Z" fill="#232020"/>
<path d="M29.4094 38.5894H14.6081C14.3574 38.5894 14.2323 38.4516 14.2325 38.176V14.3215C14.226 14.2756 14.2302 14.2288 14.2448 14.1848C14.2595 14.1407 14.2842 14.1007 14.317 14.0679C14.3498 14.0351 14.3897 14.0104 14.4337 13.9957C14.4778 13.981 14.5246 13.9768 14.5705 13.9833H19.1538C19.1895 13.9783 19.2259 13.9816 19.2601 13.9931C19.2943 14.0045 19.3254 14.0238 19.3509 14.0493C19.3764 14.0748 19.3956 14.1059 19.407 14.1401C19.4184 14.1744 19.4218 14.2108 19.4167 14.2465V33.8563H30.1982C30.4235 33.8563 30.5113 33.969 30.4614 34.1943L29.785 38.2515C29.7834 38.3068 29.769 38.3611 29.7429 38.41C29.7169 38.4589 29.6798 38.501 29.6347 38.5332C29.5651 38.5694 29.4879 38.5888 29.4094 38.5897V38.5894ZM33.1282 19.9187H37.2229C37.4513 19.9209 37.6508 20.074 37.7112 20.2945C37.8006 20.459 37.8641 20.6364 37.8993 20.8204C37.9516 21.0621 37.989 21.3067 38.0118 21.553C38.0365 21.8159 38.0489 22.0977 38.0494 22.3982C38.7516 21.5805 39.5984 20.8992 40.5475 20.3883C41.6137 19.8119 42.8107 19.5207 44.0226 19.5431C44.0685 19.5365 44.1153 19.5408 44.1593 19.5555C44.2033 19.5701 44.2433 19.5949 44.2761 19.6277C44.3089 19.6605 44.3336 19.7005 44.3482 19.7445C44.3629 19.7885 44.3671 19.8354 44.3605 19.8813V24.4269C44.3605 24.6023 44.2354 24.6898 43.9849 24.6898C42.4717 24.5962 40.958 24.8667 39.5708 25.4787C39.0994 25.6826 38.672 25.976 38.3123 26.3427V38.2515C38.3123 38.4768 38.2121 38.5894 38.0118 38.5894H33.4661C33.4151 38.5968 33.3631 38.5921 33.3142 38.5758C33.2653 38.5595 33.2208 38.532 33.1844 38.4956C33.1479 38.4591 33.1205 38.4147 33.1042 38.3658C33.0879 38.3169 33.0832 38.2649 33.0905 38.2138V25.2907C33.0905 24.9762 33.0886 24.6511 33.0844 24.3158L33.0767 23.8052C33.0752 23.7188 33.0737 23.6317 33.0717 23.544C33.0622 23.0873 33.0492 22.6306 33.0328 22.174L33.0153 21.7221C32.9987 21.2059 32.9486 20.6914 32.8652 20.1818C32.8564 20.1478 32.856 20.1121 32.8642 20.0779C32.8723 20.0436 32.8887 20.0119 32.9118 19.9855C32.935 19.959 32.9643 19.9386 32.9972 19.9261C33.03 19.9135 33.0655 19.9092 33.1004 19.9134L33.1282 19.9187Z" fill="#F8F9FA"/>
</g>
<defs>
<clipPath id="clip0_52_63">
<rect width="56" height="54.6875" fill="white"/>
</clipPath>
</defs>
</svg>
