<svg width="56" height="56" viewBox="0 0 56 56" fill="none" xmlns="http://www.w3.org/2000/svg">
<g clip-path="url(#clip0_52_49)">
<path d="M23.6833 19.6467C22.8074 19.3033 21.8701 19.1445 20.93 19.18C20.0819 19.1623 19.2335 19.1779 18.3867 19.2267V27.0667L19.2967 27.1133H20.5333C21.4433 27.1133 22.3533 26.9733 23.2167 26.6933C23.9633 26.4833 24.6167 26.04 25.13 25.4567C25.62 24.8733 25.8533 24.08 25.8533 23.0533C25.906 22.3277 25.7234 21.6043 25.3325 20.9907C24.9416 20.377 24.3633 19.9057 23.6833 19.6467ZM46.0833 0.700012H9.91667C7.2866 0.700012 4.76426 1.7448 2.90452 3.60454C1.04479 5.46427 0 7.98662 0 10.6167L0 45.3833C0 50.8667 4.43333 55.3 9.91667 55.3H46.0833C51.5667 55.3 56 50.8667 56 45.3833V10.6167C56 5.13335 51.5667 0.700012 46.0833 0.700012ZM29.54 27.8833C28.6067 29.19 27.3 30.17 25.7833 30.73C24.1967 31.3133 22.4467 31.5233 20.5333 31.5233L19.3667 31.5L18.3633 31.4767V38.9667C18.3699 39.0053 18.3684 39.0448 18.3588 39.0828C18.3492 39.1207 18.3317 39.1562 18.3075 39.187C18.2833 39.2178 18.253 39.2432 18.2184 39.2615C18.1838 39.2798 18.1457 39.2906 18.1067 39.2933H13.58C13.3933 39.2933 13.3 39.2 13.3 38.99V14.98C13.3 14.8167 13.37 14.7233 13.5333 14.7233L14.84 14.7L16.6133 14.6533L18.6433 14.6067L20.7667 14.5833C22.68 14.5833 24.2667 14.8167 25.5733 15.3067C26.74 15.7033 27.8133 16.3567 28.7 17.22C29.4467 17.9667 30.03 18.8767 30.4033 19.88C30.7533 20.86 30.94 21.8633 30.94 22.9133C30.94 24.92 30.4733 26.5767 29.54 27.8833ZM45.4533 20.5333V25.0833C45.4533 25.27 45.3367 25.34 45.08 25.34C43.5405 25.2841 42.0085 25.5793 40.6 26.2033C40.1567 26.4133 39.7367 26.6933 39.41 27.0667V38.9667C39.41 39.2 39.3167 39.2933 39.1067 39.2933H34.51C34.467 39.2999 34.4232 39.2979 34.381 39.2873C34.3389 39.2767 34.2993 39.2579 34.2645 39.2318C34.2297 39.2057 34.2005 39.173 34.1786 39.1354C34.1566 39.0979 34.1424 39.0564 34.1367 39.0133V25.9933L34.1133 24.2433L34.0667 22.4233C34.0667 21.8867 34.02 21.3733 33.9733 20.8367C33.9654 20.7814 33.9775 20.7252 34.0074 20.6781C34.0374 20.631 34.0832 20.5962 34.1367 20.58H38.29C38.5233 20.58 38.71 20.7433 38.7567 20.9533C38.9675 21.649 39.0699 22.3731 39.06 23.1C39.76 22.2833 40.6233 21.6067 41.58 21.0933C42.6646 20.4909 43.886 20.1775 45.1267 20.1833C45.29 20.16 45.43 20.2767 45.4533 20.44V20.5333Z" fill="#232020"/>
</g>
<defs>
<clipPath id="clip0_52_49">
<rect width="56" height="56" fill="white"/>
</clipPath>
</defs>
</svg>
