<svg width="56" height="56" viewBox="0 0 56 56" fill="none" xmlns="http://www.w3.org/2000/svg">
<g clip-path="url(#clip0_52_29)">
<mask id="mask0_52_29" style="mask-type:alpha" maskUnits="userSpaceOnUse" x="-1" y="0" width="57" height="56">
<path fill-rule="evenodd" clip-rule="evenodd" d="M39.7106 55.6176C40.1562 55.7913 40.6328 55.8715 41.1107 55.8531C41.5887 55.8348 42.0577 55.7182 42.4887 55.5108L54.0181 49.9629C54.6119 49.6771 55.1129 49.2294 55.4635 48.6715C55.8141 48.1135 56.0001 47.4679 56 46.8089V9.19138C56.0001 8.53234 55.8142 7.88665 55.4636 7.32861C55.113 6.77057 54.6119 6.32286 54.0181 6.037L42.4887 0.48994C41.8372 0.176474 41.1044 0.0732661 40.3917 0.1946C39.6789 0.315935 39.0216 0.655811 38.5105 1.16719L16.4386 21.3036L6.825 14.0056C6.39133 13.6764 5.85607 13.5093 5.31209 13.5334C4.76811 13.5576 4.24975 13.7714 3.84694 14.1378L0.763442 16.9426C0.523144 17.1611 0.33111 17.4274 0.199624 17.7244C0.0681381 18.0215 9.51633e-05 18.3427 -0.000151913 18.6675C-0.000398988 18.9923 0.0671552 19.3136 0.198189 19.6108C0.329223 19.908 0.520852 20.1746 0.760817 20.3936L9.09825 27.9999L0.761254 35.6068C0.52142 35.8257 0.329906 36.0923 0.198954 36.3895C0.068001 36.6866 0.000490653 37.0079 0.000737703 37.3326C0.000984754 37.6574 0.0689838 37.9785 0.200388 38.2755C0.331793 38.5724 0.523712 38.8387 0.763879 39.0573L3.84738 41.8621C4.25009 42.2287 4.76844 42.4426 5.31244 42.4668C5.85645 42.491 6.39175 42.324 6.82544 41.9947L16.4391 34.6972L38.5109 54.8331C38.8522 55.175 39.2605 55.4422 39.7106 55.6176ZM42.0083 15.2875L25.2613 27.9999L42.0088 40.7128L42.0083 15.2875Z" fill="white"/>
</mask>
<g mask="url(#mask0_52_29)">
<path d="M54.0186 6.04612L42.4799 0.489869C41.8282 0.176195 41.0951 0.0728749 40.382 0.19421C39.669 0.315546 39.0113 0.655535 38.5 1.16712L0.727127 35.6067C0.487113 35.8255 0.295437 36.0921 0.164369 36.3893C0.0333 36.6865 -0.0342735 37.0077 -0.0340264 37.3325C-0.0337793 37.6573 0.0342829 37.9785 0.165803 38.2755C0.297324 38.5725 0.489405 38.8388 0.729752 39.0572L3.815 41.8621C4.21808 42.2286 4.7367 42.4425 5.28096 42.4667C5.82521 42.4909 6.36078 42.3239 6.79481 41.9946L52.2821 7.48681C53.8081 6.32918 56 7.41768 56 9.33306V9.19918C56 8.54035 55.814 7.8949 55.4635 7.33704C55.113 6.77919 54.6121 6.33202 54.0186 6.04612Z" fill="#232020"/>
<path d="M54.0186 49.9541L42.4799 55.5094C41.8283 55.8232 41.0952 55.9267 40.3822 55.8055C39.6691 55.6843 39.0114 55.3445 38.5 54.8331L0.727127 20.3931C0.487113 20.1742 0.295437 19.9077 0.164369 19.6105C0.0333 19.3133 -0.0342735 18.992 -0.0340264 18.6672C-0.0337793 18.3424 0.0342829 18.0212 0.165803 17.7242C0.297324 17.4272 0.489405 17.161 0.729752 16.9425L3.815 14.1377C4.21808 13.7712 4.7367 13.5573 5.28096 13.5331C5.82521 13.5089 6.36078 13.6759 6.79481 14.0051L52.2821 48.5125C53.8081 49.6706 56 48.5821 56 46.6667V46.8006C56 47.4594 55.814 48.1049 55.4635 48.6627C55.113 49.2206 54.6121 49.6682 54.0186 49.9541Z" fill="#232020"/>
<path d="M42.4804 55.5108C41.8285 55.8242 41.0953 55.9274 40.3822 55.806C39.6692 55.6846 39.0114 55.3446 38.5 54.8331C39.7915 56.1246 42 55.2098 42 53.3832V2.61614C42 0.789578 39.7915 -0.125235 38.5 1.1667C39.0114 0.655179 39.6692 0.315205 40.3822 0.193799C41.0953 0.0723927 41.8285 0.175554 42.4804 0.489015L54.0168 6.03739C54.6109 6.32306 55.1122 6.77069 55.463 7.32874C55.8139 7.8868 56 8.53258 56 9.19177V46.8089C56 47.4681 55.8139 48.1139 55.463 48.6719C55.1122 49.23 54.6109 49.6776 54.0168 49.9633L42.4804 55.5108Z" fill="#232020"/>
</g>
</g>
<defs>
<clipPath id="clip0_52_29">
<rect width="56" height="56" fill="white"/>
</clipPath>
</defs>
</svg>
